<svg id="Layer_1" data-name="Layer 1" xmlns="http://www.w3.org/2000/svg" viewBox="0 0 388.2 175.21">
    <defs><style>.nav-logo{fill:#000;}</style></defs><path class="nav-logo" d="M64,80.48c0-15.66,9.71-28.09,25.06-28.09,10.44,0,16.8,4.28,16.8,11.07,0,4.28-2.4,7.41-7,7.41a5.85,5.85,0,0,1-5.64-3.44c0-7.73-.94-12.74-4.17-12.74-5.54,0-8.67,9.82-8.67,18.17,0,10.12,4.91,19.73,14.09,19.73,6.69,0,9.19-2.72,12.43-6.58l1.25.63c-3.13,9.92-10,19.73-23.18,19.73C73.31,106.37,64,96.56,64,80.48Z"></path>
    <path class="nav-logo" d="M161.32,61.69c0,5.63-4.59,8.87-12,9.08-.42-3.34-2.09-6.68-5.74-6.68-4.29,0-8.25,4.59-8.25,11.59V94.26c0,6.47,1.15,9.81,5.32,9.81v1.47h-28.4v-1.47c4.18,0,5.33-3.34,5.33-9.81V67.53c0-6.47-.84-9.6-5-8.87l-.21-1.46,6.58-1.15,16.39-3.13v14.2c2.4-7.42,7.51-14.83,15-14.83C158.19,52.29,161.32,57.09,161.32,61.69Z"></path>
    <path class="nav-logo" d="M218.83,97.81c-2.61,3.86-8.15,8.77-15.87,8.77-6.27,0-8.57-4.28-9.3-8.46-3.65,3.66-9.81,8.46-16.81,8.46-9.29,0-13.36-5.22-13.36-12.42,0-10.76,15-16.29,30-20.47V58.76a4,4,0,0,0-4.29-4.28c-3.55,0-5.43,2.51-5.43,6.06,0,3.23,2,5.63,4.08,6.05-1,3.34-5.85,6.58-11.17,6.58-6.06,0-8.88-4.07-8.88-9,0-6.47,8.35-11.9,21.51-11.9S211.2,58.55,211.2,67V95.1c0,2.92,1.57,3.65,3,3.65a5,5,0,0,0,3.66-1.67Zm-25.37-2.4V76.09c-5.12,3-10.55,9.5-10.55,15.46,0,3.55,2.3,6,5.64,6A7.76,7.76,0,0,0,193.46,95.41Z"></path>
    <path class="nav-logo" d="M273.13,53.33V54.8c-5.22,0-8.66,6.47-10.65,11.27L246,106h-6.48L222,63.77c-2.4-6.05-5-9-7.51-9V53.33H242V54.8c-4.18,0-3.45,2.92-.94,9L250.79,87l6.37-15.24c3.34-8,2.09-16.91-4.91-16.91V53.33Z"></path>
    <path class="nav-logo" d="M316.58,85l1.36.42c-2.09,10.23-9.4,21-24.12,21-13.78,0-23.28-12-23.28-27,0-14.62,9.5-26.94,25-26.94S318,67.32,318,75.15H287c.53,9.19,4.49,17.44,14,17.44C309.06,92.59,314.6,88.83,316.58,85ZM286.93,72.54h14.72c-.1-7.2-1.46-17.85-6.58-17.85C289.64,54.69,287,64.3,286.93,72.54Z"></path>
    <path class="nav-logo" d="M174.86,131.26v4.9h8.44v3.1h-8.44v3.84h10v3.1H171.62v-18h13.27v3.1Z"></path>
    <path class="nav-logo" d="M192.78,137.18a9.36,9.36,0,0,1,9.42-9.29,9.47,9.47,0,0,1,7.45,3.6l-2.52,1.92A6.27,6.27,0,0,0,202.2,131a6.18,6.18,0,1,0,0,12.36,6.27,6.27,0,0,0,4.93-2.41l2.52,1.92a9.47,9.47,0,0,1-7.45,3.6A9.36,9.36,0,0,1,192.78,137.18Z"></path>
    <path class="nav-logo" d="M164.37,131.26h-6.48V146.2h-3.24V131.26h-6.47v-3.1h16.19Z"></path>
    <path class="nav-logo" d="M233.88,128.16v18.05h-3.24v-7.14H220.4v7.13h-3.24v-18h3.24v7.68h10.24v-7.67Z"></path>
</svg>
